<?xml version="1.0" encoding="UTF-8" standalone="no"?>
<svg
   xmlns:dc="http://purl.org/dc/elements/1.1/"
   xmlns:cc="http://creativecommons.org/ns#"
   xmlns:rdf="http://www.w3.org/1999/02/22-rdf-syntax-ns#"
   xmlns:svg="http://www.w3.org/2000/svg"
   xmlns="http://www.w3.org/2000/svg"
   viewBox="0 0 773.33331 213.17332"
   height="213.17332"
   width="773.33331"
   xml:space="preserve"
   id="svg2"
   version="1.1"><metadata
     id="metadata8"><rdf:RDF><cc:Work
         rdf:about=""><dc:format>image/svg+xml</dc:format><dc:type
           rdf:resource="http://purl.org/dc/dcmitype/StillImage" /></cc:Work></rdf:RDF></metadata><defs
     id="defs6" /><g
     transform="matrix(1.3333333,0,0,-1.3333333,0,213.17333)"
     id="g10"><g
       transform="scale(0.1)"
       id="g12"><path
         id="path14"
         style="fill:#100f0d;fill-opacity:1;fill-rule:nonzero;stroke:none"
         d="m 5791.55,1584.75 c -26.61,36.74 -126.7,-9.96 -126.7,-9.96 -470.02,-226.75 -1130.03,-166.67 -1130.03,-166.67 -330.08,9.96 -349.34,75.19 -636.82,113.34 -334.13,44.39 -484.56,-152.46 -516.6,-204.5 -266.93,37.6 -403.72,133.56 -472.67,186.31 -70.16,-53.83 -211.24,-152.56 -488.76,-188.51 -29.16,48.51 -179.08,251.71 -518.03,206.7 -287.42,-38.15 -306.68,-103.38 -636.69,-113.34 0,0 -660.062,-60.08 -1130.137,166.67 0,0 -100.0388,46.7 -126.64425,9.96 0,0 -83.39455,-99.98 273.32825,-323.33 0,0 -97.488,-204.15 360.176,-290.381 0,0 228.269,-40.019 449.127,17.606 0,0 -40.42,-55.602 0,-106.211 0,0 -237.666,-40.477 -439.948,-25.309 0,0 171.934,-343.855 783.838,-338.805 0,0 -31.21,-33.531 -184.22,-71.461 0,0 -50.56,-14.277 25.3,-45.738 0,0 149.92,-58.43 419.69,-1.59 L 1528.79,252.172 c 0,0 -24,-16.762 1.25,-30.621 47.45,-26.27 179.13,-68.742 361.65,39.621 0,0 -46.03,-165.8009 27.74,-184.2111 0,0 92.11,-13.8203 225.78,101.3401 0,0 -2.71,-157.8322 27.7,-175.10959 0,0 179.68,-43.72271 359.56,193.54659 130.03,-86.847 273.78,-162.9294 376.2,-162.9294 99.25,0 236.19,73.1404 362.05,158.4804 C 3449.51,-40.1211 3627.05,3.19922 3627.05,3.19922 3654,10.7188 3654.68,178.32 3654.68,178.32 3788.29,63.1484 3880.45,76.9609 3880.45,76.9609 c 73.66,18.3399 27.71,184.2191 27.71,184.2191 182.59,-108.289 314.21,-65.77 361.71,-39.629 25.24,13.898 1.18,30.64 1.18,30.64 l -166.94,147.348 c 269.87,-56.84 419.78,1.59 419.78,1.59 75.74,31.473 25.21,45.742 25.21,45.742 -153.04,37.93 -184.23,71.449 -184.23,71.449 612,-5.039 783.88,338.817 783.88,338.817 -202.29,-15.172 -440,25.308 -440,25.308 40.42,50.618 0,106.207 0,106.207 207.44,-55.597 450.87,-16.355 450.87,-16.355 446.82,75.293 358.72,289.183 358.72,289.183 356.61,223.34 273.21,323.27 273.21,323.27" /><path
         id="path16"
         style="fill:#6f7377;fill-opacity:1;fill-rule:nonzero;stroke:none"
         d="m 1968.08,1038.23 c 35.77,78.02 100.76,213.9 136.89,253.47 0,0 -46.08,-152.74 -66.76,-253.47 h 311.38 c -2.59,44.28 -39.22,79.27 -84.13,79.27 v 184.74 c 21.68,0.78 42.64,1.92 62.96,3.4 -40.48,48.63 -145.15,148.43 -326.04,153.54 -159.15,4.53 -354.8,-73.72 -354.8,-73.72 0,0 -359.62,-149.12 -1008.975,-27.68 0,0 -141.203,21.4 -432.929,129.99 0,0 -86.453,38.27 -72.41,-14.11 0,0 38.218,-209.18 577.359,-289.69 0,0 -88.434,-42.24 -295.699,-54.29 0,0 213.211,-255.504 824.824,-44.27 0,0 -24.79,-44.56 -88.67,-106.043 0,0 -44.33,-39.351 -4.91,-71.277 0,0 149.96,-63.922 481.84,199.17 0,0 -4.91,-196.744 -169.62,-353.987 0,0 -17.2,-22.078 9.79,-27.058 0,0 208.47,-31.77 425.58,199.25 v 112.785 l 74.32,-0.02 v 0" /><path
         id="path18"
         style="fill:#6f7377;fill-opacity:1;fill-rule:nonzero;stroke:none"
         d="m 2332.06,345.879 c 0,0 -83.79,64.32 -106.39,88.769 103.77,11.661 94.67,75.192 94.67,91.481 h -91.5 c -11.55,-49.469 -44.32,-157.5 -124.88,-246.27 0,0 -44.12,-60.597 -77.11,-47.687 0,0 -31.08,12.519 31.2,110.187 50.15,78.692 86.28,151.161 101.73,183.77 h -85.5 c -40.75,-47.899 -160.22,-177.5 -295.35,-220.52 0,0 147.03,136.95 198.37,220.52 H 1905 C 1821.39,423.09 1715.41,324.648 1661.85,279.121 c -23.78,-20.101 -9.85,-42.402 5.25,-44.43 171.09,-23.152 391.22,198.938 391.22,198.938 -127.9,-223.609 -83.56,-267.949 -83.56,-267.949 54.05,-36.871 265.51,135.242 265.51,135.242 -23.82,-105.41 -24.8,-161.461 -28.54,-211.4025 -4.29,-56.789 44.45,-36.0078 61.48,-26.0312 106.26,62.2737 162.21,173.9217 171.88,194.4027 -13.98,10.3 -27.68,20.507 -40.92,30.531 -45.28,-67.5 -255.49,-367.5001 -72.11,57.457" /><path
         id="path20"
         style="fill:#6f7377;fill-opacity:1;fill-rule:nonzero;stroke:none"
         d="m 5594.3,1487.76 c -291.74,-108.64 -432.87,-129.99 -432.87,-129.99 -649.41,-121.45 -1009.03,27.69 -1009.03,27.69 0,0 -195.67,78.24 -354.8,73.71 -179.3,-5.1 -283.87,-103.22 -324.97,-152.29 25.35,-1.99 51.63,-3.57 79.03,-4.58 v -184.79 c -44.79,0 -81.52,-35.04 -84.01,-79.26 h 294.29 c -20.63,100.72 -66.81,253.46 -66.81,253.46 36.11,-39.58 101.11,-175.45 136.89,-253.46 h 66.01 V 934.418 c 220.07,-240.703 433.79,-208.086 433.79,-208.086 27.06,4.863 9.84,26.941 9.84,26.941 -164.69,157.375 -169.62,354.047 -169.62,354.047 331.87,-263.093 481.9,-199.172 481.9,-199.172 39.36,31.985 -4.86,71.278 -4.86,71.278 -63.97,61.484 -88.77,106.034 -88.77,106.034 611.6,-211.226 824.86,44.28 824.86,44.28 -207.22,12.05 -295.74,54.29 -295.74,54.29 539.14,80.5 577.34,289.7 577.34,289.7 14.05,52.32 -72.47,14.03 -72.47,14.03" /><path
         id="path22"
         style="fill:#6f7377;fill-opacity:1;fill-rule:nonzero;stroke:none"
         d="M 4021.21,305.672 C 3886,348.711 3766.56,478.23 3725.68,526.25 h -85.43 c 15.46,-32.621 51.56,-105.141 101.74,-183.891 62.28,-97.609 31.25,-110.187 31.25,-110.187 -33.08,-12.781 -77.17,47.789 -77.17,47.789 -80.52,88.769 -113.41,196.68 -124.94,246.269 h -72.81 c 0,-23 -6.8,-71.679 90.23,-82.21 -23.14,-21.641 -116.62,-100.551 -116.62,-100.551 186.72,-449.188 -55.49,-90.36 -75.68,-60.008 -12.74,-9.801 -25.88,-19.711 -39.37,-29.672 14.04,-28.769 69.65,-131.457 169.9,-190.2773 17.03,-10.0234 67.37,-30.5234 61.54,25.9766 -4.09,39.4727 -4.77,105.9997 -28.55,211.4727 0,0 211.36,-172.109 265.54,-135.25 0,0 44.21,44.289 -83.63,267.949 0,0 220.13,-222.101 391.21,-198.988 15.12,2.047 29.05,24.359 5.33,44.508 -53.67,45.511 -159.54,144.011 -243.17,247.07 h -72.34 c 51.42,-83.629 198.5,-220.578 198.5,-220.578" /><path
         id="path24"
         style="fill:#100f0d;fill-opacity:1;fill-rule:nonzero;stroke:none"
         d="m 1297.18,1265.62 c -255.67,-201.78 -702.297,-166.8 -702.297,-166.8 126.48,32.33 282.512,113.07 282.512,113.07 -390.129,13.41 -559.692,188.34 -559.692,188.34 0,0 425.11,-166.84 979.477,-134.61" /><path
         id="path26"
         style="fill:#100f0d;fill-opacity:1;fill-rule:nonzero;stroke:none"
         d="m 4506.27,1265.62 c 255.57,-201.78 702.37,-166.8 702.37,-166.8 -126.48,32.33 -282.63,113.07 -282.63,113.07 390.2,13.41 559.76,188.34 559.76,188.34 0,0 -425.17,-166.84 -979.5,-134.61" /><path
         id="path28"
         style="fill:#6f7377;fill-opacity:1;fill-rule:nonzero;stroke:none"
         d="m 3979.09,752.133 c 1.25,-5.156 5.2,-7.805 10.53,-10.528 45.64,-23.449 244.64,-115.957 569.43,-73.144 0,0 145.95,24.566 70.2,58.094 0,0 -60.02,19.472 -79.94,41.008 0,0 75.08,-28.899 278.77,-40.098 0,0 -266.98,-216.996 -822.71,-21.621 0,0 -28.65,13.574 -30.35,1.914 -1.64,-11.543 -7.35,-35.625 15.8,-63.067 28.42,-27.402 120.7,-110.062 256.12,-169.839 0,0 -82.32,-16.922 -312.18,77.386 0,0 234.74,-225.047 546.94,-130.617 0,0 -162.19,53.211 -261.38,140.277 0,0 503.36,-79.808 776.8,234.707 0,0 -445.2,-62.812 -733.26,176.637 0,0 -21.8,-79.816 135.48,-222.574 0,0 46.04,-41.074 0,-48.352 0,0 -209.41,-49.187 -393.63,85.071 0,0 -12.74,11.39 -19.14,0 -4.31,-7.485 -11.22,-20.981 -7.48,-35.254" /><path
         id="path30"
         style="fill:#6f7377;fill-opacity:1;fill-rule:nonzero;stroke:none"
         d="m 1817.13,752.133 c -0.67,-3.731 -5.21,-7.805 -10.59,-10.528 -45.63,-23.449 -244.58,-115.957 -569.38,-73.144 0,0 -145.94,24.566 -70.2,58.094 0,0 59.96,19.472 79.94,41.008 0,0 -75.06,-28.899 -278.763,-40.098 0,0 267.053,-216.996 822.773,-21.621 0,0 28.7,13.574 30.3,1.914 1.7,-11.543 7.35,-35.625 -15.75,-63.067 -28.41,-27.402 -120.69,-110.062 -256.12,-169.839 0,0 82.26,-16.922 312.16,77.386 0,0 -234.72,-225.047 -547.01,-130.617 0,0 162.26,53.211 261.45,140.277 0,0 -503.42,-79.808 -776.803,234.707 0,0 445.263,-62.812 733.263,176.637 0,0 21.75,-79.816 -135.48,-222.574 0,0 -45.97,-41.074 0,-48.352 0,0 209.42,-49.187 393.65,85.071 0,0 12.51,10.711 19.07,0 4.61,-7.305 11.23,-20.981 7.49,-35.254" /><path
         id="path32"
         style="fill:#100f0d;fill-opacity:1;fill-rule:nonzero;stroke:none"
         d="m 1747.45,1200.63 c -4.14,-58.32 -30.47,-217.185 -188.59,-404.466 0,0 276,110.344 382.66,493.516 0,0 20.73,80.34 -43.47,93.47 0,0 -91.33,15.23 -208.74,-91.32 0,0 -197.82,-189.1 -404.46,-265.24 0,0 83.63,-60.582 441.25,182.81 7.2,4.98 22.37,6.67 21.35,-8.77" /><path
         id="path34"
         style="fill:#100f0d;fill-opacity:1;fill-rule:nonzero;stroke:none"
         d="m 4052.56,1200.63 c 4.2,-58.32 30.47,-217.185 188.65,-404.466 0,0 -276.05,110.344 -382.72,493.516 0,0 -20.71,80.34 43.49,93.47 0,0 91.32,15.23 208.8,-91.32 0,0 197.81,-189.1 404.38,-265.24 0,0 -83.6,-60.582 -441.31,182.81 -7.14,4.98 -22.29,6.67 -21.29,-8.77" /><path
         id="path36"
         style="fill:#d86a20;fill-opacity:1;fill-rule:nonzero;stroke:none"
         d="m 2908.74,78.0898 c 150.02,0 492.7,240.2692 606.04,355.6012 -58.58,25.879 -68.21,62.719 -72.13,92.579 h -47.04 c 2.88,-27.911 8.59,-71.36 47.04,-98.282 -44.16,-42.258 -376.2,-307.668 -533.93,-307.668 -157.5,0 -488.49,265.41 -532.65,307.668 38.45,26.922 44.22,70.371 47.06,98.282 h -47.06 c -3.91,-29.84 -13.41,-66.641 -72.11,-92.579 C 2417.3,318.359 2758.93,78.0898 2908.74,78.0898" /><path
         id="path38"
         style="fill:#d86a20;fill-opacity:1;fill-rule:nonzero;stroke:none"
         d="m 2908.74,1399.89 c 97.14,-66.8 279.34,-153.32 558.33,-172.95 l -0.12,-52.14 c -47.89,-28.36 -80.39,-77.11 -81.63,-136.55 h 41.44 c 1.58,52.54 35.44,93.87 82.48,110.8 l 0.19,115.32 c -345.61,17.94 -509.43,120.74 -600.68,185.35 -84.87,-63.75 -255.35,-167.41 -600.92,-185.36 l -0.12,-115.32 c 47.06,-16.93 81.2,-58.26 82.77,-110.81 h 41.51 c -1.25,59.45 -33.81,108.2 -81.76,136.56 l -0.05,52.14 c 303.6,27.47 473.85,110.76 558.56,172.96" /><path
         id="path40"
         style="fill:#d86a20;fill-opacity:1;fill-rule:nonzero;stroke:none"
         d="M 1940.5,993.527 H 3857.19 V 571.488 H 1940.5 v 422.039" /><path
         id="path42"
         style="fill:#100f0d;fill-opacity:1;fill-rule:nonzero;stroke:none"
         d="M 1965.98,967.977 H 3831.55 V 596.988 H 1965.98 v 370.989" /><path
         id="path44"
         style="fill:#d86a20;fill-opacity:1;fill-rule:nonzero;stroke:none"
         d="m 2481.96,1038.23 v 165.56 l 45.08,8.1 35.48,-75.76 39.36,91.6 42.17,11.05 v -200.55 h -45.07 v 81.1 l -34.99,-81.6 -36.95,78.65 v -78.15 h -45.08" /><path
         id="path46"
         style="fill:#d86a20;fill-opacity:1;fill-rule:nonzero;stroke:none"
         d="m 2670.88,1202.32 c -0.45,28.82 8.22,45.58 27.41,53.16 l 78.68,30.35 c 23.95,8.6 45.58,-4.81 45.58,-25.87 v -176.58 c 0,-35.56 -25.47,-45.13 -45.11,-45.13 h -59 c -39.4,0 -48.01,28.32 -47.56,43.2 v 120.87" /><path
         id="path48"
         style="fill:#d86a20;fill-opacity:1;fill-rule:nonzero;stroke:none"
         d="m 3156.54,1202.32 v -120.87 c 0.45,-14.9 -8.21,-43.2 -47.56,-43.2 h -59.05 c -19.7,0 -45.07,9.57 -45.07,45.13 v 176.58 c 0,21.06 21.63,34.48 45.62,25.87 l 78.59,-30.29 c 19.25,-7.64 27.92,-24.41 27.47,-53.22" /><path
         id="path50"
         style="fill:#d86a20;fill-opacity:1;fill-rule:nonzero;stroke:none"
         d="m 2828.33,1307.39 81.47,44.61 86.45,-46.98 v -49.88 l -59.51,32.1 v -249.01 h -48.9 v 251.82 l -59.51,-32.53 v 49.87" /><path
         id="path52"
         style="fill:#d86a20;fill-opacity:1;fill-rule:nonzero;stroke:none"
         d="m 3194.86,1038.23 v 197.2 l 108.36,-22.65 c 15.46,-3.28 45.12,-13.3 45.12,-43.14 v -32.1 c 0,-11.55 -1.41,-21.63 -15.79,-28.82 6.68,-3.79 15.79,-16.81 15.79,-24.47 v -46.02 h -45.12 v 36 c 0,11.45 -13.81,16.77 -20.16,16.77 h -43.13 v -52.77 h -45.07" /><path
         id="path54"
         style="fill:#d86a20;fill-opacity:1;fill-rule:nonzero;stroke:none"
         d="m 2636.52,329.051 v -47.5 l -143.58,107.238 c -9.91,7.481 -15.23,18.012 -15.23,30.231 v 76.652 c 0,17.668 14.33,31.988 32.06,31.988 h 97.89 v -45.012 h -70.83 c -5.83,0 -10.64,-4.757 -10.64,-10.597 v -49.75 c 0,-4.871 2.03,-9.071 5.99,-12 l 104.34,-81.25" /><path
         id="path56"
         style="fill:#d86a20;fill-opacity:1;fill-rule:nonzero;stroke:none"
         d="M 3339.57,527.719 V 483.621 H 3234.1 c -2.61,0 -4.81,-2.09 -4.81,-4.582 v -27.18 c 0,-2.621 2.22,-4.769 4.81,-4.769 h 100.7 c 3.16,0 5.65,-2.36 5.65,-5.551 v -55.598 c 0,-6.351 -2.94,-11.89 -8.37,-15.281 l -147.65,-93.941 v 40.613 l 110.67,73.488 c 3.79,2.371 4.86,7.711 2.37,11.602 -1.53,2.367 -4.14,3.68 -7.08,3.68 h -85.25 c -9.18,0 -16.52,7.968 -16.52,16.98 v 74.047 c 0,16.883 13.81,30.512 30.73,30.512 h 120.2 l 0.02,0.078 v 0" /><path
         id="path58"
         style="fill:#d86a20;fill-opacity:1;fill-rule:nonzero;stroke:none"
         d="m 2681.03,395.191 -47.06,132.481 h 45.81 l 24.57,-76.383 38.9,76.383 h 43.24 L 2725.63,393.551 V 225.719 l -44.6,27.07 v 142.402" /><path
         id="path60"
         style="fill:#d86a20;fill-opacity:1;fill-rule:nonzero;stroke:none"
         d="m 2903.75,478.57 h -42.81 c -9.11,0 -16.53,-7.261 -16.53,-16.422 V 247.52 c 0,-7.032 3.69,-12.969 10.02,-16.129 l 51.99,-26.051 v -52.59 l -88.33,39.301 c -12.74,5.609 -20.38,17.371 -20.38,31.25 v 262.398 c 0,23.211 18.84,42 42,42 h 64.04 V 478.57" /><path
         id="path62"
         style="fill:#d86a20;fill-opacity:1;fill-rule:nonzero;stroke:none"
         d="m 3166.71,527.672 v -48.293 h -66.29 v -68.731 h 47.55 v -39.179 h -47.55 v -94.098 l 57.75,27.18 v -41.539 l -78.88,-39.461 c -8.2,-4.129 -18.68,1.187 -18.68,11.551 v 274.957 c 0,9.75 7.99,17.562 17.72,17.562 h 88.37 l 0.01,0.051 v 0" /><path
         id="path64"
         style="fill:#d86a20;fill-opacity:1;fill-rule:nonzero;stroke:none"
         d="M 2988.55,527.719 V 229.238 l 50.06,20.332 v -45.738 l -85.49,-38.672 c -7.03,-3.07 -15.53,1.461 -15.53,10.02 v 352.601 h 50.96 v -0.062" /><path
         id="path66"
         style="fill:#100f0d;fill-opacity:1;fill-rule:nonzero;stroke:none"
         d="m 3240.03,1182.16 v -46.03 h 53.22 c 8.59,0 9.96,7.64 9.96,15.8 0,8.16 0,17.27 -9.51,19.18 l -53.67,11.05" /><path
         id="path68"
         style="fill:#100f0d;fill-opacity:1;fill-rule:nonzero;stroke:none"
         d="m 3100.77,1217.2 -36.35,14.39 c -6.8,2.89 -14.49,0 -14.49,-10.48 v -122.9 c 0,-8.16 3.84,-14.83 13.93,-14.83 h 33.08 c 10.53,0 14.37,5.26 14.37,13.93 v 97.82 c 0.04,10.53 -0.91,17.26 -10.54,22.07" /><path
         id="path70"
         style="fill:#100f0d;fill-opacity:1;fill-rule:nonzero;stroke:none"
         d="m 2726.66,1217.2 c -9.62,-4.81 -10.6,-11.49 -10.6,-22.02 v -97.83 c 0,-8.61 3.79,-13.94 14.34,-13.94 h 33.06 c 10.08,0 13.92,6.68 13.92,14.84 v 122.9 c 0,10.48 -7.64,13.37 -14.32,10.48 l -36.4,-14.43" /><path
         id="path72"
         style="fill:#ffffff;fill-opacity:1;fill-rule:nonzero;stroke:none"
         d="M 2006.64,643.652 V 915.57 h 41.66 V 806.809 h 33 V 915.57 h 41.66 V 643.652 h -41.66 v 116.762 h -33 V 643.652 h -41.66" /><path
         id="path74"
         style="fill:#ffffff;fill-opacity:1;fill-rule:nonzero;stroke:none"
         d="m 2167.87,915.57 h 62.44 l 31.87,-271.918 h -42.12 l -7.35,70.774 h -30.46 l -8.61,-70.774 h -37.77 l 32,271.918" /><path
         id="path76"
         style="fill:#ffffff;fill-opacity:1;fill-rule:nonzero;stroke:none"
         d="m 2353.06,734.594 c 0,16.519 -7.25,21.738 -33.86,21.738 v -112.68 h -41.67 V 915.57 h 68.91 c 33.34,0 48.23,-11.441 48.23,-46.593 v -38.61 c 0,-20.211 -3.74,-36.058 -18.74,-47.57 0.34,-0.313 0.96,-0.957 1.81,-1.563 4.76,-4.082 16.47,-13.918 16.93,-29.66 v -107.91 h -41.73 l 0.12,90.93" /><path
         id="path78"
         style="fill:#ffffff;fill-opacity:1;fill-rule:nonzero;stroke:none"
         d="M 2418.9,643.652 V 915.57 h 41.67 V 686.699 h 42.34 v -43.047 h -84.01" /><path
         id="path80"
         style="fill:#ffffff;fill-opacity:1;fill-rule:nonzero;stroke:none"
         d="M 2516.89,643.652 V 915.57 h 86.18 v -42.414 h -44.45 v -66.461 h 42.46 v -43 h -42.46 v -76.996 h 45.23 v -43.047 h -86.96" /><path
         id="path82"
         style="fill:#ffffff;fill-opacity:1;fill-rule:nonzero;stroke:none"
         d="m 2672.75,820.629 23.1,94.941 h 38.91 l -42.82,-168.418 v -103.5 h -41.72 v 101.575 l -42.79,170.343 h 42.79 l 22.53,-94.941" /><path
         id="path84"
         style="fill:#ffffff;fill-opacity:1;fill-rule:nonzero;stroke:none"
         d="m 2829.36,915.57 h 50.32 c 41.39,0 58.61,-13.644 58.61,-61.484 V 692.934 c 0,-25.942 -17.22,-49.27 -49.49,-49.27 h -59.39 V 915.57 h -0.05" /><path
         id="path86"
         style="fill:#ffffff;fill-opacity:1;fill-rule:nonzero;stroke:none"
         d="m 3199.39,915.57 h 41.68 V 643.664 h -41.68 V 915.57" /><path
         id="path88"
         style="fill:#ffffff;fill-opacity:1;fill-rule:nonzero;stroke:none"
         d="m 3436.04,695.063 c 0,-13.809 7.47,-16.875 16.12,-16.875 8.22,0 16.09,3.066 16.09,16.875 v 28.652 c 0,38.203 -74.46,48.711 -74.46,93.051 v 58.422 c 0,35.441 32.3,45.859 57.87,45.859 25.93,0 58.88,-10.359 58.88,-45.859 v -51.915 h -41.79 v 37.993 c 0,13.75 -8.37,16.812 -16.64,16.812 -8.72,0 -16.65,-3.062 -16.65,-16.812 v -30.18 c 0,-19.481 74.4,-53.895 74.4,-81.375 v -65.449 c 0,-35.625 -32.38,-45.918 -58.26,-45.918 -25.53,0 -57.3,10.293 -57.3,45.918 v 59.16 h 41.73 v -48.359 h 0.01" /><path
         id="path90"
         style="fill:#ffffff;fill-opacity:1;fill-rule:nonzero;stroke:none"
         d="m 3586.68,638.305 c -25.53,0 -58.36,10.281 -58.36,45.894 v 190.949 c 0,35.442 32.77,45.852 58.36,45.852 25.54,0 59.16,-10.363 59.16,-45.852 V 684.199 c 0.13,-35.66 -33.5,-45.894 -59.16,-45.894" /><path
         id="path92"
         style="fill:#ffffff;fill-opacity:1;fill-rule:nonzero;stroke:none"
         d="M 3704.85,798.488 V 643.652 h -41.79 V 915.57 h 56.33 l 27.24,-138.261 V 915.57 h 42.46 V 643.652 h -50.95 l -33.29,154.836" /><path
         id="path94"
         style="fill:#ffffff;fill-opacity:1;fill-rule:nonzero;stroke:none"
         d="m 2730.57,797.797 h 76.26 v -34.336 h -76.26 v 34.336" /><path
         id="path96"
         style="fill:#ffffff;fill-opacity:1;fill-rule:nonzero;stroke:none"
         d="m 3265.75,915.57 h 50.44 c 41.21,0 58.53,-13.644 58.53,-61.484 V 692.934 c 0,-25.942 -17.31,-49.27 -49.53,-49.27 h -59.38 V 915.57 h -0.06" /><path
         id="path98"
         style="fill:#ffffff;fill-opacity:1;fill-rule:nonzero;stroke:none"
         d="m 3149.86,915.57 h 41.94 l -39.12,-271.918 h -46.65 L 3066.8,915.57 h 42.52 l 20.31,-163.437 20.23,163.437" /><path
         id="path100"
         style="fill:#ffffff;fill-opacity:1;fill-rule:nonzero;stroke:none"
         d="m 2981.25,915.57 h 62.5 l 31.89,-271.918 h -42.01 l -7.38,70.774 h -30.56 l -8.49,-70.774 h -37.81 l 31.86,271.918" /><path
         id="path102"
         style="fill:#100f0d;fill-opacity:1;fill-rule:nonzero;stroke:none"
         d="m 3021.27,760.285 -9.44,121.992 -11.15,-121.992 z" /><path
         id="path104"
         style="fill:#100f0d;fill-opacity:1;fill-rule:nonzero;stroke:none"
         d="m 3307.47,686.574 h 9.78 c 10.64,0 15.8,2.571 15.8,20.203 v 145.586 c 0,17.614 -5.26,20.278 -15.8,20.278 h -9.78 V 686.574" /><path
         id="path106"
         style="fill:#100f0d;fill-opacity:1;fill-rule:nonzero;stroke:none"
         d="m 3587.13,683.754 c 8.56,0 17.04,2.945 17.04,16.758 v 159.683 c 0,13.762 -8.48,16.821 -17.04,16.821 -8.65,0 -17.1,-3.059 -17.1,-16.821 V 700.512 c 0,-13.774 8.45,-16.758 17.1,-16.758" /><path
         id="path108"
         style="fill:#100f0d;fill-opacity:1;fill-rule:nonzero;stroke:none"
         d="m 2871.03,686.574 h 9.84 c 10.64,0 15.68,2.571 15.68,20.203 v 145.586 c 0,17.614 -5.09,20.278 -15.68,20.278 h -9.84 V 686.574" /><path
         id="path110"
         style="fill:#100f0d;fill-opacity:1;fill-rule:nonzero;stroke:none"
         d="m 2319.19,798.414 h 14.56 c 14.55,0 17.76,12.063 17.76,21.973 v 40.879 c 0,10.3 -6.33,16.871 -15.73,16.871 h -16.54 v -79.711 l -0.05,-0.012 v 0" /><path
         id="path112"
         style="fill:#100f0d;fill-opacity:1;fill-rule:nonzero;stroke:none"
         d="m 2207.78,760.285 -9.4,121.992 -11.21,-121.992 z" /></g></g></svg>